<svg width="17" height="18" fill="none" xmlns="http://www.w3.org/2000/svg"><path d="M15.583 6.167v3.541c0 2.834-1.416 4.25-4.25 4.25h-.354a.718.718 0 00-.566.284L9.35 15.658c-.467.624-1.232.624-1.7 0l-1.062-1.416a.8.8 0 00-.567-.284h-.354c-2.834 0-4.25-.708-4.25-4.25V6.167c0-2.834 1.416-4.25 4.25-4.25H8.5" stroke="#009834" stroke-width="1.5" stroke-miterlimit="10" stroke-linecap="round" stroke-linejoin="round"/><path d="M10.767 3.772c-.234-.7.042-1.565.807-1.806.397-.12.893-.021 1.176.354.27-.39.78-.474 1.176-.354.765.234 1.041 1.105.807 1.806-.36 1.113-1.629 1.686-1.983 1.686-.354 0-1.608-.566-1.983-1.686z" stroke="#009834" stroke-width="1.5" stroke-linecap="round" stroke-linejoin="round"/><path d="M11.33 8.292h.008m-2.842 0h.008m-2.84 0h.005" stroke="#009834" stroke-width="2" stroke-linecap="round" stroke-linejoin="round"/></svg>