<svg width="1546" height="314" fill="none" xmlns="http://www.w3.org/2000/svg"><path d="M-149 122.139c45.242-2.704 92.14-19.084 136.01-29.51 117.369-27.892 233.15-53.636 353.482-65.017 70.46-6.664 141.264-11.314 212.042-11.995 69.279-.668 154.779-5.413 219.008 27.35 27.468 14.011 50.808 42.872 42.149 75.813-9.489 36.097-47.301 63.21-75.207 83.611-55.881 40.852-125.757 86.581-195.631 95.606-3.138.405-36.296 5.034-31.877-9.716 7.278-24.298 61.031-37.384 79.456-43.665 168.848-57.554 316.84-81.462 523.848-111.201C1350.5 99.481 1532.97 104.981 1724 92.63" stroke="#009834" stroke-width="30" stroke-linecap="round"/></svg>