<svg width="665" height="1044" fill="none" xmlns="http://www.w3.org/2000/svg"><path d="M15-62c145.748 94.95 290.004 193.184 391.469 355.58 56.143 89.858 106.048 189.691 139.767 294.836 45.665 142.399 95.422 361.146-4.187 491.294-40.32 52.68-99.019 41.47-148.14 22.52-71.268-27.49-135.158-75.62-192.595-132.603-66.533-66.005-128.757-152.909-154.913-253.795-12.599-48.596-17.438-103.317-9.974-153.789 8.445-57.108 40.804-98.757 81.766-126.527 44.632-30.258 95.204-44.611 145.801-50.226 132.059-14.653 267.84 7.006 397.626 34.966 160.193 34.511 318.84 81.393 478.16 121.045 204.83 50.977 410.05 99.833 615.22 148.751" stroke="#fff" stroke-width="30" stroke-linecap="round"/></svg>