<svg width="619" height="682" fill="none" xmlns="http://www.w3.org/2000/svg"><path d="M30.629-164.888C-5.473-149.727-35.2-107.581-40.134-77.259c-5.205 31.971.09 63.237 4.388 91.977C-25.156 85.52-8.129 153.457 16.2 217.692c31.752 83.833 70.872 165.891 119.512 239.217C230.8 600.256 359.408 736.284 528.578 812.514c15.428 6.952 29.007 14.037 49.038 12.424 6.56-.529 17.517-11.289 18.351-17.24 1.459-10.409-2.071-19.649-5.755-28.052-18.025-41.119-54.096-79.422-86.343-109.66C424.88 595.92 318.661 536.205 189.305 524.49c-58.401-5.288-119.883 3.906-182.605 42.225-106.26 64.916-180.799 167.869-221.767 266.25-43.839 105.277-61.842 212.395-69.437 312.755-17.501 231.27 50.489 432.65 119.444 627.66 68.046 192.45 146.899 379.12 254.636 547.68 148.577 232.45 338.355 434.93 514.104 646.83" stroke="#009834" stroke-width="30" stroke-linecap="round"/></svg>