<svg width="1920" height="1065" fill="none" xmlns="http://www.w3.org/2000/svg"><path d="M0-79C4.84-12.483 18.882 49.892 49.804 105.418c31.825 57.149 74.759 104.293 119.908 144.436 46.922 41.719 97.977 74.27 151.112 101.955 87.967 45.834 178.975 82.662 272.319 106.953 147.626 38.416 301.64 49.598 452.137 48.978 200.7-.826 402.28-26.942 600.44-65.471 118.32-23.005 237.64-53.487 349.43-108.452 51.55-25.347 127.85-59.234 133.91-140.188 3.24-43.42-15.44-73.593-42.11-98.206-41.87-38.655-93.7-62.407-144.51-74.217-105.74-24.58-216.77-17.793-322.52 2.998-105.73 20.788-220.05 52.139-303.82 141.188-49.27 52.375-80.87 129.543-74.21 211.406 8.06 99.013 84.93 164.67 147.01 212.156 37.16 28.424 64.73 45.569 105.01 68.22 82.27 46.269 167.62 87.145 253.42 121.946 142.3 57.725 288.95 97.195 435.03 136.44 181.7 48.812 364.27 90.06 546.64 134.44" stroke="#fff" stroke-width="30" stroke-linecap="round"/></svg>