<svg width="1674" height="318" fill="none" xmlns="http://www.w3.org/2000/svg"><path d="M-811 728c4.317-64.828 16.842-125.621 44.423-179.738 28.387-55.698 66.681-101.646 106.953-140.771 41.852-40.659 87.391-72.385 134.784-99.367 78.463-44.671 159.638-80.564 242.898-104.238 131.675-37.441 269.049-48.34 403.282-47.736 179.02.806 358.815 26.259 535.57 63.81 105.538 22.421 211.961 52.13 311.672 105.7 45.978 24.703 114.038 57.731 119.438 136.63 2.9 42.318-13.77 71.725-37.55 95.714-37.35 37.674-83.576 60.823-128.898 72.334-94.318 23.955-193.351 17.341-287.676-2.923-94.307-20.26-196.278-50.815-270.996-137.604-43.946-51.046-72.129-126.256-66.188-206.042 7.184-96.499 75.749-160.49 131.127-206.771 33.147-27.703 57.739-44.413 93.662-66.489 73.381-45.095 149.514-84.933 226.038-118.851 126.93-56.26 388.031-132.977 388.031-132.977S1499.38-359.23 1660-108.342" stroke="#fff" stroke-width="27.116" stroke-linecap="round"/></svg>