<svg width="1920" height="318" fill="none" xmlns="http://www.w3.org/2000/svg"><path d="M3963-204c-6.94 35.698-27.09 69.174-71.46 98.973-45.67 30.67-107.27 55.972-172.05 77.516-67.33 22.389-140.58 39.859-216.82 54.716-126.22 24.599-256.81 44.363-390.74 57.4-211.83 20.616-432.81 26.618-648.75 26.285-287.98-.444-577.21-14.46-861.55-35.137-169.77-12.346-340.97-28.705-501.37-58.203-73.97-13.604-183.455-31.79-192.144-75.236-4.66-23.303 22.155-39.496 60.412-52.705 60.082-20.745 134.442-33.492 207.352-39.831 151.72-13.191 311.04-9.549 462.77 1.609 151.71 11.157 315.75 27.982 435.94 75.772 70.7 28.109 116.03 69.523 106.48 113.457-11.56 53.138-121.86 88.375-210.94 113.86-53.32 15.254-92.88 24.456-150.67 36.612-118.05 24.831-240.52 46.768-363.62 65.445-204.19 30.98-624.208 73.224-624.208 73.224S246.38 394.685-12 256.533" stroke="#fff" stroke-width="30" stroke-linecap="round"/></svg>