<svg width="766" height="447" fill="none" xmlns="http://www.w3.org/2000/svg"><path d="M-116.923-315.101c-34.503 18.513-60.103 63.285-62.145 93.938-2.152 32.32 6.079 62.944 13.081 91.147 17.249 69.48 40.635 135.5 70.938 197.141 39.55 80.449 86.266 158.433 141.633 226.822 108.238 133.696 249.152 256.931 424.783 316.795 16.017 5.459 30.205 11.226 49.993 7.722 6.481-1.147 16.37-12.897 16.636-18.901.466-10.5-3.922-19.363-8.385-27.38-21.839-39.227-61.376-73.941-96.343-100.988-85.649-66.251-197.046-115.637-326.931-115.047-58.639.267-118.973 15.244-177.784 59.331-99.633 74.689-164.086 184.24-195.551 286.059-33.67 108.956-41.446 217.299-39.501 317.922 4.484 231.89 91.242 425.92 178.359 613.53 85.968 185.13 182.148 363.5 305.367 521.1 169.926 217.33 378.029 400.92 573.059 595.22" stroke="#009834" stroke-width="30" stroke-linecap="round"/></svg>