<svg width="50" height="50" fill="none" xmlns="http://www.w3.org/2000/svg"><g clip-path="url(#clip0_722_5598)" fill="#009834"><path d="M49.635 47.866l-12.5-12.5c-.006-.006-.014-.008-.02-.013 3.34-3.753 5.386-8.683 5.386-14.103C42.5 9.514 32.986 0 21.25 0S0 9.514 0 21.25 9.514 42.5 21.25 42.5c5.42 0 10.349-2.046 14.103-5.386.006.006.007.014.012.02l12.5 12.5c.245.244.565.366.885.366a1.252 1.252 0 00.884-2.134zM21.25 40C10.911 40 2.5 31.588 2.5 21.25S10.911 2.5 21.25 2.5C31.588 2.5 40 10.912 40 21.25S31.589 40 21.25 40z"/><path fill-rule="evenodd" clip-rule="evenodd" d="M20 29a1 1 0 102 0v-6h6a1 1 0 100-2h-6v-6a1 1 0 10-2 0v6h-6a1 1 0 100 2h6v6z"/></g><defs><clipPath id="clip0_722_5598"><path fill="#fff" d="M0 0h50v50H0z"/></clipPath></defs></svg>