<svg width="22" height="20" fill="none" xmlns="http://www.w3.org/2000/svg"><path d="M15.41.505c-1.633 0-3.206.61-4.41 1.693A6.605 6.605 0 006.59.505 6.597 6.597 0 000 7.095a6.61 6.61 0 002.12 4.842l7.677 7.088a1.771 1.771 0 002.447-.039l7.635-7.049A6.61 6.61 0 0022 7.095a6.597 6.597 0 00-6.59-6.59zm-4.068 17.56a.481.481 0 01-.67.013l-7.047-6.506h4.129a.645.645 0 00.57-.344l.936-1.775 1.316 4.586a.644.644 0 001.152.186l1.81-2.654h4.837l-7.014 6.476a.518.518 0 00-.019.017zM6.59 1.793a5.31 5.31 0 013.932 1.746.645.645 0 00.956 0 5.312 5.312 0 013.932-1.746c2.923 0 5.3 2.378 5.3 5.3a5.318 5.318 0 01-1.066 3.188h-6.447a.644.644 0 00-.532.282l-1.228 1.8-1.38-4.807a.644.644 0 00-1.189-.123l-1.503 2.848h-5.01A5.317 5.317 0 011.29 7.095a5.307 5.307 0 015.3-5.301z" fill="#fff"/></svg>